<?xml version="1.0" encoding="UTF-8" standalone="no"?>
<!-- Created with Inkscape (http://www.inkscape.org/) -->

<svg
   xmlns:dc="http://purl.org/dc/elements/1.1/"
   xmlns:cc="http://creativecommons.org/ns#"
   xmlns:rdf="http://www.w3.org/1999/02/22-rdf-syntax-ns#"
   xmlns:svg="http://www.w3.org/2000/svg"
   xmlns="http://www.w3.org/2000/svg"
   xmlns:sodipodi="http://sodipodi.sourceforge.net/DTD/sodipodi-0.dtd"
   xmlns:inkscape="http://www.inkscape.org/namespaces/inkscape"
   width="60"
   height="60"
   viewBox="0 0 15.875 15.875"
   version="1.1"
   id="svg910"
   inkscape:version="0.92.4 (5da689c313, 2019-01-14)"
   sodipodi:docname="icone-assistance-item.svg">
  <defs
     id="defs904" />
  <sodipodi:namedview
     id="base"
     pagecolor="#ffffff"
     bordercolor="#666666"
     borderopacity="1.0"
     inkscape:pageopacity="0.0"
     inkscape:pageshadow="2"
     inkscape:zoom="1.979899"
     inkscape:cx="-121.42857"
     inkscape:cy="-5.6854251"
     inkscape:document-units="mm"
     inkscape:current-layer="layer1"
     showgrid="false"
     units="px"
     inkscape:window-width="1920"
     inkscape:window-height="1057"
     inkscape:window-x="1912"
     inkscape:window-y="-8"
     inkscape:window-maximized="1" />
  <metadata
     id="metadata907">
    <rdf:RDF>
      <cc:Work
         rdf:about="">
        <dc:format>image/svg+xml</dc:format>
        <dc:type
           rdf:resource="http://purl.org/dc/dcmitype/StillImage" />
        <dc:title></dc:title>
      </cc:Work>
    </rdf:RDF>
  </metadata>
  <g
     inkscape:label="Calque 1"
     inkscape:groupmode="layer"
     id="layer1"
     transform="translate(0,-281.125)">
    <circle
       style="opacity:1;fill:#252c61;fill-opacity:1;stroke:none;stroke-width:0.26102152;stroke-miterlimit:4;stroke-dasharray:none;stroke-dashoffset:0;stroke-opacity:1"
       id="path5842-5-2-4-5"
       cx="7.9375"
       cy="289.0625"
       inkscape:export-xdpi="95.728645"
       inkscape:export-ydpi="95.728645"
       r="7.9375" />
    <path
       inkscape:connector-curvature="0"
       style="fill:#ffffff;fill-opacity:1;stroke:#252c61;stroke-width:0.33619571;stroke-miterlimit:4;stroke-dasharray:none;stroke-opacity:1"
       d="m 13.215937,291.72958 c 0.624792,-0.61571 0.99966,-1.38818 0.99966,-2.23107 0,-1.81756 -1.738038,-3.31932 -4.003193,-3.58741 -0.7156484,-1.30865 -2.3969188,-2.22879 -4.3576081,-2.22879 -2.6104657,0 -4.7256692,1.62671 -4.7256692,3.63513 0,0.84062 0.3748686,1.61308 0.9996602,2.23105 -0.3475972,0.6975 -0.8474116,1.23823 -0.8565265,1.24731 -0.1431337,0.15222 -0.1840097,0.37487 -0.1000234,0.56799 0.081752,0.19312 0.2726317,0.31807 0.4816369,0.31807 1.2154937,0 2.1969972,-0.45893 2.8444976,-0.88152 0.2090365,0.0477 0.42487,0.084 0.6452348,0.11133 0.7133822,1.30411 2.3878248,2.22198 4.3462593,2.22198 0.472574,0 0.9269494,-0.0545 1.3586164,-0.1545 0.647522,0.42032 1.626739,0.88152 2.844488,0.88152 0.209036,0 0.397608,-0.12495 0.481668,-0.31807 0.08175,-0.19312 0.04312,-0.41577 -0.100024,-0.56799 -0.0094,-0.007 -0.511142,-0.54754 -0.858771,-1.24503 z m -8.9242423,-2.09702 -0.3885149,0.25218 c -0.320336,0.20675 -0.64749,0.37034 -0.9792065,0.4862 0.061288,-0.10677 0.1226801,-0.22037 0.1817649,-0.33625 l 0.3521598,-0.70657 -0.5634619,-0.55663 c -0.3067212,-0.30444 -0.6747615,-0.80201 -0.6747615,-1.45405 0,-1.37908 1.6653277,-2.5446 3.6351213,-2.5446 1.9698041,0 3.6351427,1.16552 3.6351427,2.5446 0,1.37907 -1.6653386,2.54458 -3.6351427,2.54458 -0.3748686,0 -0.7497373,-0.0431 -1.1132567,-0.12723 z m 8.1585933,1.32001 -0.561165,0.55436 0.35216,0.70657 c 0.05909,0.11588 0.120414,0.22947 0.181744,0.33625 -0.331696,-0.11587 -0.65885,-0.27945 -0.979217,-0.4862 l -0.388484,-0.25219 -0.452141,0.10452 c -0.363509,0.084 -0.7383784,0.12723 -1.1132464,0.12723 -1.2268433,0 -2.3219434,-0.45666 -2.98309,-1.12917 2.3014998,-0.24537 4.0736274,-1.75849 4.0736274,-3.5965 0,-0.0773 -0.0094,-0.15223 -0.01598,-0.22719 1.463141,0.32943 2.560507,1.29047 2.560507,2.40826 0,0.65206 -0.368072,1.14962 -0.674762,1.45406 z"
       id="path6783-1"
       inkscape:export-xdpi="95.728645"
       inkscape:export-ydpi="95.728645" />
  </g>
</svg>
