<?xml version="1.0" encoding="UTF-8" standalone="no"?>
<!-- Created with Inkscape (http://www.inkscape.org/) -->

<svg
   xmlns:dc="http://purl.org/dc/elements/1.1/"
   xmlns:cc="http://creativecommons.org/ns#"
   xmlns:rdf="http://www.w3.org/1999/02/22-rdf-syntax-ns#"
   xmlns:svg="http://www.w3.org/2000/svg"
   xmlns="http://www.w3.org/2000/svg"
   xmlns:sodipodi="http://sodipodi.sourceforge.net/DTD/sodipodi-0.dtd"
   xmlns:inkscape="http://www.inkscape.org/namespaces/inkscape"
   width="60"
   height="60"
   viewBox="0 0 15.875 15.875"
   version="1.1"
   id="svg910"
   inkscape:version="0.92.4 (5da689c313, 2019-01-14)"
   sodipodi:docname="icone-documentation-item.svg">
  <defs
     id="defs904" />
  <sodipodi:namedview
     id="base"
     pagecolor="#ffffff"
     bordercolor="#666666"
     borderopacity="1.0"
     inkscape:pageopacity="0.0"
     inkscape:pageshadow="2"
     inkscape:zoom="1.979899"
     inkscape:cx="-213.60499"
     inkscape:cy="-5.6854251"
     inkscape:document-units="mm"
     inkscape:current-layer="layer1"
     showgrid="false"
     units="px"
     inkscape:window-width="1920"
     inkscape:window-height="1057"
     inkscape:window-x="1912"
     inkscape:window-y="-8"
     inkscape:window-maximized="1" />
  <metadata
     id="metadata907">
    <rdf:RDF>
      <cc:Work
         rdf:about="">
        <dc:format>image/svg+xml</dc:format>
        <dc:type
           rdf:resource="http://purl.org/dc/dcmitype/StillImage" />
        <dc:title />
      </cc:Work>
    </rdf:RDF>
  </metadata>
  <g
     inkscape:label="Calque 1"
     inkscape:groupmode="layer"
     id="layer1"
     transform="translate(0,-281.125)">
    <circle
       style="opacity:1;fill:#252c61;fill-opacity:1;stroke:none;stroke-width:0.26102152;stroke-miterlimit:4;stroke-dasharray:none;stroke-dashoffset:0;stroke-opacity:1"
       id="path5842-5-2-4-2-0-2"
       cx="8.2020836"
       cy="289.0625"
       inkscape:export-xdpi="95.728645"
       inkscape:export-ydpi="95.728645"
       r="7.9375" />
    <path
       d="m 12.334756,286.90173 c 0,2.62473 -2.8349027,2.66513 -2.8349027,3.6351 v 0.24806 c 0,0.25941 -0.210341,0.46975 -0.469734,0.46975 h -1.78686 c -0.259424,0 -0.469723,-0.21034 -0.469723,-0.46975 v -0.33895 c 0,-1.39923 1.060812,-1.95857 1.862461,-2.40804 0.687416,-0.38538 1.108747,-0.64749 1.108747,-1.15787 0,-0.67509 -0.861152,-1.12318 -1.55738,-1.12318 -0.907687,0 -1.326762,0.42969 -1.915773,1.17313 -0.158847,0.20042 -0.448623,0.23766 -0.652418,0.0831 l -1.08919,-0.82588 c -0.199922,-0.15156 -0.244672,-0.43318 -0.103469,-0.64053 0.924851,-1.35809 2.102873,-2.12106 3.936998,-2.12106 1.9208567,0 3.9712227,1.49941 3.9712227,3.47606 z m -2.5539597,6.54501 c 0,0.90655 -0.737532,1.64409 -1.644122,1.64409 -0.906528,0 -1.64406,-0.73754 -1.64406,-1.64409 0,-0.90655 0.737532,-1.64408 1.64406,-1.64408 0.90659,0 1.644122,0.73753 1.644122,1.64408 z"
       id="path2-9-2-0"
       inkscape:connector-curvature="0"
       style="opacity:1;fill:#ffffff;fill-opacity:1;stroke:#252c61;stroke-width:0.24744843;stroke-miterlimit:4;stroke-dasharray:none;stroke-opacity:1"
       sodipodi:nodetypes="ssssssscssccccsssssss"
       inkscape:export-xdpi="95.728645"
       inkscape:export-ydpi="95.728645" />
  </g>
</svg>
